<?xml version="1.0" encoding="iso-8859-1"?>
<!-- Uploaded to: SVG Repo, www.svgrepo.com, Generator: SVG Repo Mixer Tools -->
<svg height="800px" width="800px" version="1.1" id="Layer_1" xmlns="http://www.w3.org/2000/svg" xmlns:xlink="http://www.w3.org/1999/xlink" 
	 viewBox="0 0 512 512" xml:space="preserve">
<path style="fill:#F2F2F2;" d="M293.646,318.958l-53.36-53.36c-6.975-6.975-6.975-18.283,0-25.258
	c6.974-6.975,18.283-6.975,25.258,0l53.36,53.36c6.975,6.975,6.975,18.283,0,25.258C311.93,325.933,300.62,325.934,293.646,318.958z
	"/>
<path style="fill:#CDD6E0;" d="M240.286,240.342l78.618,78.618c6.975-6.975,6.975-18.283,0-25.258l-53.36-53.36
	C258.569,233.365,247.26,233.365,240.286,240.342z"/>
<path style="fill:#40596B;" d="M45.545,265.599c-60.654-60.653-60.654-159.346,0-219.999c60.797-60.797,159.197-60.802,219.999,0
	c60.654,60.653,60.654,159.346,0,219.999C204.893,326.25,106.199,326.255,45.545,265.599z"/>
<path style="fill:#364C5C;" d="M45.545,45.599l219.999,220c60.654-60.653,60.654-159.346,0-219.999
	C204.741-15.202,106.342-15.198,45.545,45.599z"/>
<path style="fill:#84DBFF;" d="M70.803,240.342c-46.744-46.744-46.745-122.74,0-169.483c46.836-46.835,122.642-46.842,169.483,0
	c46.745,46.744,46.744,122.74,0,169.482C193.541,287.085,117.546,287.085,70.803,240.342z"/>
<path style="fill:#54C9EB;" d="M70.803,70.858l169.483,169.483l0,0c46.744-46.744,46.744-122.738,0-169.482
	C193.443,24.016,117.639,24.023,70.803,70.858z"/>
<path style="fill:#40596B;" d="M404.973,495.82L260.878,351.726c-6.975-6.975-6.975-18.283,0-25.258l65.534-65.534
	c6.974-6.975,18.283-6.975,25.258,0l144.094,144.094c21.575,21.575,21.575,56.68,0,78.255l-12.537,12.535
	C461.657,517.39,426.551,517.397,404.973,495.82z"/>
<path style="fill:#364C5C;" d="M326.412,260.934l-32.766,32.766l195.851,195.851l6.269-6.268
	c21.575-21.575,21.574-56.68-0.001-78.255L351.67,260.934C344.695,253.959,333.386,253.959,326.412,260.934z"/>
<g>
	<path style="fill:#54C9EB;" d="M96.781,204.867c-9.864,0-17.86-7.997-17.86-17.86v-21.504c0-9.864,7.997-17.86,17.86-17.86
		s17.86,7.997,17.86,17.86v21.504C114.641,196.87,106.644,204.867,96.781,204.867z"/>
	<path style="fill:#54C9EB;" d="M155.543,204.867c-9.864,0-17.86-7.997-17.86-17.86v-49.044c0-9.864,7.997-17.86,17.86-17.86
		s17.86,7.997,17.86,17.86v49.044C173.403,196.87,165.407,204.867,155.543,204.867z"/>
	<path style="fill:#54C9EB;" d="M214.306,204.867c-9.864,0-17.86-7.997-17.86-17.86v-62.815c0-9.864,7.997-17.86,17.86-17.86
		c9.864,0,17.86,7.997,17.86,17.86v62.815C232.167,196.87,224.17,204.867,214.306,204.867z"/>
</g>
<g>
	<path style="fill:#169ED9;" d="M155.543,120.102c-9.792,0-17.734,7.882-17.849,17.648l35.71,35.71v-35.498
		C173.403,128.099,165.407,120.102,155.543,120.102z"/>
	<path style="fill:#169ED9;" d="M214.306,204.867c-9.864,0-17.86-7.997-17.86-17.86v-62.815c0-9.864,7.997-17.86,17.86-17.86
		c9.864,0,17.86,7.997,17.86,17.86v62.815C232.167,196.87,224.17,204.867,214.306,204.867z"/>
</g>
</svg>